<svg width="1280" height="832" viewBox="0 0 1280 832" fill="none" xmlns="http://www.w3.org/2000/svg">
<line x1="37.5" y1="2.18557e-08" x2="37.5" y2="832" stroke="#6FDCFF" stroke-opacity="0.06"/>
<line x1="96.5001" y1="2.18557e-08" x2="96.5" y2="832" stroke="#6FDCFF" stroke-opacity="0.06"/>
<line x1="155.5" y1="2.18557e-08" x2="155.5" y2="832" stroke="#6FDCFF" stroke-opacity="0.06"/>
<line x1="214.5" y1="2.18557e-08" x2="214.5" y2="832" stroke="#6FDCFF" stroke-opacity="0.06"/>
<line x1="273.5" y1="2.18557e-08" x2="273.5" y2="832" stroke="#6FDCFF" stroke-opacity="0.06"/>
<line x1="332.5" y1="2.18557e-08" x2="332.5" y2="832" stroke="#6FDCFF" stroke-opacity="0.06"/>
<line x1="391.5" y1="2.18557e-08" x2="391.5" y2="832" stroke="#6FDCFF" stroke-opacity="0.06"/>
<line x1="450.5" y1="2.18557e-08" x2="450.5" y2="832" stroke="#6FDCFF" stroke-opacity="0.06"/>
<line x1="509.5" y1="2.18557e-08" x2="509.5" y2="832" stroke="#6FDCFF" stroke-opacity="0.06"/>
<line x1="568.501" y1="2.18557e-08" x2="568.5" y2="832" stroke="#6FDCFF" stroke-opacity="0.06"/>
<line x1="627.501" y1="2.18557e-08" x2="627.501" y2="832" stroke="#6FDCFF" stroke-opacity="0.06"/>
<line x1="686.501" y1="2.18557e-08" x2="686.501" y2="832" stroke="#6FDCFF" stroke-opacity="0.06"/>
<line x1="745.501" y1="2.18557e-08" x2="745.501" y2="832" stroke="#6FDCFF" stroke-opacity="0.06"/>
<line x1="804.501" y1="2.18557e-08" x2="804.501" y2="832" stroke="#6FDCFF" stroke-opacity="0.06"/>
<line x1="863.501" y1="2.18557e-08" x2="863.501" y2="832" stroke="#6FDCFF" stroke-opacity="0.06"/>
<line x1="922.501" y1="2.18557e-08" x2="922.501" y2="832" stroke="#6FDCFF" stroke-opacity="0.06"/>
<line x1="981.501" y1="2.18557e-08" x2="981.501" y2="832" stroke="#6FDCFF" stroke-opacity="0.06"/>
<line x1="1040.5" y1="2.18557e-08" x2="1040.5" y2="832" stroke="#6FDCFF" stroke-opacity="0.06"/>
<line x1="1099.5" y1="2.18557e-08" x2="1099.5" y2="832" stroke="#6FDCFF" stroke-opacity="0.06"/>
<line x1="1158.5" y1="2.18557e-08" x2="1158.5" y2="832" stroke="#6FDCFF" stroke-opacity="0.06"/>
<line x1="1217.5" y1="2.18557e-08" x2="1217.5" y2="832" stroke="#6FDCFF" stroke-opacity="0.06"/>
<line x1="1276.5" y1="2.18557e-08" x2="1276.5" y2="832" stroke="#6FDCFF" stroke-opacity="0.06"/>
<line x1="1280" y1="27.5" x2="-6.60075e-08" y2="27.4999" stroke="#6FDCFF" stroke-opacity="0.06"/>
<line x1="1280" y1="86.5" x2="-4.81073e-08" y2="86.4999" stroke="#6FDCFF" stroke-opacity="0.06"/>
<line x1="1280" y1="145.5" x2="-4.81073e-08" y2="145.5" stroke="#6FDCFF" stroke-opacity="0.06"/>
<line x1="1280" y1="204.5" x2="-4.81073e-08" y2="204.5" stroke="#6FDCFF" stroke-opacity="0.06"/>
<line x1="1280" y1="263.5" x2="-4.81073e-08" y2="263.5" stroke="#6FDCFF" stroke-opacity="0.06"/>
<line x1="1280" y1="322.5" x2="-4.81073e-08" y2="322.5" stroke="#6FDCFF" stroke-opacity="0.06"/>
<line x1="1280" y1="381.5" x2="-4.81073e-08" y2="381.5" stroke="#6FDCFF" stroke-opacity="0.06"/>
<line x1="1280" y1="440.501" x2="-4.81073e-08" y2="440.5" stroke="#6FDCFF" stroke-opacity="0.06"/>
<line x1="1280" y1="499.501" x2="-4.81073e-08" y2="499.501" stroke="#6FDCFF" stroke-opacity="0.06"/>
<line x1="1280" y1="558.501" x2="-4.81073e-08" y2="558.501" stroke="#6FDCFF" stroke-opacity="0.06"/>
<line x1="1280" y1="617.501" x2="-4.81073e-08" y2="617.501" stroke="#6FDCFF" stroke-opacity="0.06"/>
<line x1="1280" y1="676.501" x2="-4.81073e-08" y2="676.501" stroke="#6FDCFF" stroke-opacity="0.06"/>
<line x1="1280" y1="735.501" x2="-4.81073e-08" y2="735.501" stroke="#6FDCFF" stroke-opacity="0.06"/>
<line x1="1280" y1="794.501" x2="-4.81073e-08" y2="794.501" stroke="#6FDCFF" stroke-opacity="0.06"/>
</svg>
